<?xml version="1.0" standalone="no"?><!DOCTYPE svg PUBLIC "-//W3C//DTD SVG 1.1//EN" "http://www.w3.org/Graphics/SVG/1.1/DTD/svg11.dtd"><svg t="1642325776375" class="icon" viewBox="0 0 1024 1024" version="1.1" xmlns="http://www.w3.org/2000/svg" p-id="3766" xmlns:xlink="http://www.w3.org/1999/xlink" width="200" height="200"><defs><style type="text/css"></style></defs><path d="M405.835294 350.870588c-30.117647-41.411765-67.764706-80.564706-114.447059-88.847059-46.682353-9.035294-103.152941 24.847059-107.670588 79.058824-3.764706 42.164706 24.094118 78.305882 51.2 106.917647 53.458824 56.470588 113.694118 106.164706 163.388235 166.4s91.105882 135.529412 96.376471 219.105882C523.294118 753.694118 583.529412 691.952941 646.776471 643.011765c64-48.941176 133.270588-88.094118 194.258823-140.8 30.870588-26.352941 60.235294-57.976471 73.035294-98.635294 12.8-40.658824 5.270588-92.611765-26.352941-115.952942-16.564706-12.047059-36.894118-15.058824-56.470588-15.058823-57.223529 1.505882-111.435294 30.870588-158.117647 67.764706-29.364706 23.341176-56.470588 48.941176-82.82353 76.8-24.847059 26.352941-47.435294 54.964706-71.529411 84.329412-15.058824 18.823529-18.823529 16.564706-30.870589-6.02353-9.035294-16.564706-15.811765-34.635294-24.094117-51.2-16.564706-31.623529-36.141176-63.247059-57.976471-93.364706z" fill="#D94545" p-id="3767"></path><path d="M234.164706 318.494118c-11.294118 20.329412 0 48.941176 17.317647 61.741176 17.317647 13.552941 39.905882 16.564706 60.235294 24.094118 27.105882 9.035294 51.952941 24.847059 72.282353 45.929412 14.305882 14.305882 27.105882 32.376471 44.423529 42.917647 8.282353-8.282353 4.517647-22.588235-0.752941-33.882353-14.305882-31.623529-27.858824-64-47.435294-91.858824-18.823529-27.105882-44.423529-51.2-73.035294-64-21.835294-9.035294-59.482353-10.541176-73.035294 15.058824zM713.035294 354.635294C666.352941 383.247059 624.941176 421.647059 591.058824 468.329412c-5.270588 6.776471-10.541176 15.058824-9.788236 24.094117 0.752941 15.058824 16.564706 23.341176 29.364706 20.329412 12.8-3.011765 23.341176-13.552941 33.882353-23.341176 25.6-23.341176 54.964706-41.411765 87.341177-46.682353 27.858824-4.517647 56.470588 0.752941 85.082352-1.505883 42.917647-3.764706 89.6-37.647059 71.529412-92.611764-13.552941-41.411765-58.729412-33.882353-90.352941-27.105883-30.870588 5.270588-58.729412 17.317647-85.082353 33.129412z" fill="#EB5959" p-id="3768"></path><path d="M278.588235 323.764706c-7.529412-0.752941-15.811765-1.505882-22.588235 2.258823-6.776471 3.764706-12.047059 12.8-9.788235 21.082353 1.505882 5.270588 6.023529 9.035294 9.788235 12.047059 11.294118 6.023529 24.094118 6.023529 36.141176 7.529412 21.835294 3.011765 42.917647 12.047059 60.988236 26.352941 2.258824 1.505882 5.270588 3.764706 7.529412 3.764706 3.764706-0.752941 6.776471-6.023529 6.77647-10.541176-0.752941-16.564706-24.847059-33.882353-36.141176-42.164706-15.811765-11.294118-33.882353-18.070588-52.705883-20.329412zM393.035294 432.941176c2.258824 0 4.517647-0.752941 6.02353-3.011764 3.011765-5.270588-3.764706-15.058824-9.035295-12.047059-6.023529 3.011765-3.011765 13.552941 3.011765 15.058823zM716.8 381.741176c-5.270588 4.517647-10.541176 11.294118-7.529412 18.070589 1.505882 4.517647 6.776471 6.776471 11.294118 6.77647 4.517647-0.752941 9.035294-3.011765 12.8-5.270588 24.094118-12.8 51.952941-17.317647 79.058823-18.070588 10.541176 0 21.835294 0 32.376471-2.258824 5.270588-1.505882 11.294118-3.764706 15.058824-8.282353 4.517647-4.517647 6.776471-10.541176 6.023529-17.317647-1.505882-10.541176-12.047059-15.058824-21.835294-17.317647-22.588235-5.270588-42.917647 2.258824-65.505883 9.788236-21.835294 7.529412-43.670588 17.317647-61.741176 33.882352zM668.611765 436.705882c5.270588 3.011765 12.047059 1.505882 16.564706-3.011764 9.035294-9.035294 4.517647-30.117647-9.035295-25.6-11.294118 2.258824-21.082353 21.082353-7.529411 28.611764z" fill="#F58181" p-id="3769"></path><path d="M348.611765 503.717647c33.882353 31.623529 69.270588 63.247059 94.870588 104.658824 13.552941 21.835294 24.094118 44.423529 33.882353 68.517647 9.788235 24.094118 23.341176 43.670588 33.882353 67.011764 1.505882 3.011765 5.270588 1.505882 4.517647-1.505882-4.517647-29.364706-4.517647-51.2-16.564706-77.552941-10.541176-22.588235-24.847059-42.917647-40.658824-60.988235-32.376471-37.647059-70.776471-70.023529-109.17647-100.141177 0-1.505882-0.752941-0.752941-0.752941 0zM515.764706 628.705882c5.270588 9.035294 11.294118 18.070588 16.564706 27.105883 4.517647 7.529412 7.529412 16.564706 12.8 24.094117 1.505882 2.258824 6.023529 0 5.270588-3.011764-4.517647-18.823529-19.576471-37.647059-33.129412-48.941177-1.505882-1.505882-1.505882 0-1.505882 0.752941zM644.517647 599.341176c-12.047059 9.035294-24.847059 18.070588-36.894118 27.105883-9.788235 7.529412-22.588235 14.305882-27.858823 26.352941-1.505882 3.011765 3.011765 6.023529 5.270588 3.764706 19.576471-19.576471 39.905882-37.647059 60.235294-56.470588 0.752941 0.752941 0-0.752941-0.752941-0.752942zM700.988235 564.705882c-9.788235 3.764706-21.082353 10.541176-28.611764 19.576471-1.505882 1.505882 0 3.764706 2.258823 2.258823 4.517647-3.764706 8.282353-7.529412 12.8-11.294117 3.764706-3.011765 8.282353-6.776471 13.552941-10.541177zM619.670588 591.058824c-6.023529 2.258824-11.294118 6.023529-16.564706 9.788235-1.505882 1.505882 0.752941 3.764706 2.258824 2.258823 4.517647-4.517647 9.788235-7.529412 15.058823-10.541176 1.505882 0 0-1.505882-0.752941-1.505882zM863.623529 457.035294c-36.141176 28.611765-74.541176 53.458824-109.929411 82.070588-1.505882 0.752941 0 3.011765 1.505882 2.258824 39.905882-22.588235 76.047059-50.447059 109.176471-83.576471 0.752941-0.752941 0-1.505882-0.752942-0.752941zM267.294118 465.317647c6.776471 4.517647 12.8 9.035294 19.57647 13.552941 6.023529 4.517647 12.8 9.788235 19.576471 12.8 0.752941 0.752941 2.258824-0.752941 0.752941-2.258823-5.270588-5.270588-12.047059-8.282353-18.823529-12.047059-6.776471-4.517647-14.305882-8.282353-21.082353-12.8-0.752941-0.752941-0.752941 0 0 0.752941z" fill="#C72E2E" p-id="3770"></path></svg>